<svg width="82" height="37" viewBox="0 0 82 37" fill="none" xmlns="http://www.w3.org/2000/svg">
<path d="M5.86364 1.09091H17.6591L22.5 20.8636H22.9091L34.2955 1.09091H46.0909L40.2955 36H31.0227L34.3636 15.8182H34.0909L23.0455 35.7273H17.4545L13.0227 15.6818H12.75L9.34091 36H0.0681818L5.86364 1.09091ZM80.9574 14.1818H71.4801C71.5483 13.375 71.5028 12.6477 71.3438 12C71.1847 11.3523 70.9119 10.7955 70.5256 10.3295C70.1392 9.85227 69.6335 9.48864 69.0085 9.23864C68.3835 8.98864 67.6392 8.86364 66.7756 8.86364C65.1165 8.86364 63.6335 9.27841 62.3267 10.108C61.0199 10.9261 59.9347 12.1023 59.071 13.6364C58.2074 15.1591 57.5938 16.9773 57.2301 19.0909C56.9119 21.1364 56.9006 22.8352 57.196 24.1875C57.5028 25.5398 58.0994 26.5511 58.9858 27.2216C59.8835 27.892 61.0483 28.2273 62.4801 28.2273C63.4347 28.2273 64.3097 28.1136 65.1051 27.8864C65.9119 27.6591 66.6278 27.3352 67.2528 26.9148C67.8892 26.483 68.429 25.9716 68.8722 25.3807C69.3267 24.7784 69.6733 24.1136 69.9119 23.3864H79.4574C79.0938 24.8636 78.446 26.375 77.5142 27.9205C76.5824 29.4545 75.3778 30.8693 73.9006 32.1648C72.4233 33.4489 70.6847 34.4886 68.6847 35.2841C66.6847 36.0795 64.4347 36.4773 61.9347 36.4773C58.6619 36.4773 55.8381 35.7614 53.4631 34.3295C51.0994 32.8977 49.3835 30.8068 48.3153 28.0568C47.2585 25.3068 47.0483 21.9545 47.6847 18C48.321 14.1818 49.5767 10.983 51.4517 8.40341C53.3267 5.82386 55.6051 3.88068 58.2869 2.57386C60.9688 1.26704 63.821 0.613635 66.8438 0.613635C69.1278 0.613635 71.1733 0.914771 72.9801 1.51704C74.7983 2.11932 76.3267 3 77.5653 4.15909C78.8153 5.30682 79.7358 6.72159 80.3267 8.40341C80.9176 10.0852 81.1278 12.0114 80.9574 14.1818Z" fill="#D0FE19"/>
</svg>
