<svg width="115" height="33" viewBox="0 0 115 33" fill="none" xmlns="http://www.w3.org/2000/svg">
<path d="M0.032 12L2.272 0.799999H5.344L8.336 8.112H6.704L12.464 0.799999H15.68L13.472 12H10.032L11.2 5.984L11.744 5.952L7.872 10.992H6.208L4.032 5.936L4.672 5.984L3.472 12H0.032ZM21.6016 12.256C20.439 12.256 19.431 12.0427 18.5776 11.616C17.735 11.1893 17.079 10.6027 16.6096 9.856C16.151 9.09867 15.9216 8.22933 15.9216 7.248C15.9216 6.256 16.0923 5.35467 16.4336 4.544C16.7856 3.72267 17.2763 3.01333 17.9056 2.416C18.535 1.81867 19.2816 1.36 20.1456 1.04C21.0096 0.709333 21.9536 0.544 22.9776 0.544C24.1403 0.544 25.143 0.757333 25.9856 1.184C26.839 1.61067 27.495 2.20267 27.9536 2.96C28.423 3.70667 28.6576 4.57067 28.6576 5.552C28.6576 6.544 28.4816 7.45067 28.1296 8.272C27.7883 9.08267 27.303 9.78667 26.6736 10.384C26.0443 10.9813 25.2976 11.4453 24.4336 11.776C23.5696 12.096 22.6256 12.256 21.6016 12.256ZM21.9216 9.2C22.391 9.2 22.8016 9.10933 23.1536 8.928C23.5163 8.74667 23.8256 8.496 24.0816 8.176C24.3376 7.856 24.5296 7.49333 24.6576 7.088C24.7856 6.672 24.8496 6.23467 24.8496 5.776C24.8496 5.33867 24.759 4.96 24.5776 4.64C24.407 4.30933 24.1563 4.05333 23.8256 3.872C23.5056 3.69067 23.1163 3.6 22.6576 3.6C22.199 3.6 21.7883 3.69067 21.4256 3.872C21.063 4.05333 20.7536 4.304 20.4976 4.624C20.2416 4.944 20.0496 5.312 19.9216 5.728C19.7936 6.13333 19.7296 6.56533 19.7296 7.024C19.7296 7.45067 19.815 7.82933 19.9856 8.16C20.167 8.49067 20.4176 8.74667 20.7376 8.928C21.0683 9.10933 21.463 9.2 21.9216 9.2ZM31.9895 12L29.4935 0.799999H33.3655L35.3815 10.288H32.9175L38.8055 0.799999H42.6775L35.7015 12H31.9895ZM40.8133 12L43.0533 0.799999H46.8293L44.5893 12H40.8133ZM46.407 12L48.647 0.799999H51.719L54.711 8.112H53.079L58.839 0.799999H62.055L59.847 12H56.407L57.575 5.984L58.119 5.952L54.247 10.992H52.583L50.407 5.936L51.047 5.984L49.847 12H46.407ZM61.6726 12L63.9126 0.799999H67.6886L65.4486 12H61.6726ZM72.1304 4.96H77.1224L76.5784 7.68H71.5864L72.1304 4.96ZM71.5384 9.152H77.1544L76.5784 12H67.2664L69.5064 0.799999H78.6104L78.0344 3.648H72.6424L71.5384 9.152ZM78.032 12L80.272 0.799999H83.376L87.584 7.616H86.272L87.632 0.799999H91.312L89.072 12H85.968L81.76 5.184H83.072L81.712 12H78.032ZM93.3234 12L94.9714 3.728H91.6914L92.2834 0.799999H102.619L102.027 3.728H98.7474L97.0994 12H93.3234ZM107.508 12.256C106.345 12.256 105.337 12.0427 104.484 11.616C103.641 11.1893 102.985 10.6027 102.516 9.856C102.057 9.09867 101.828 8.22933 101.828 7.248C101.828 6.256 101.999 5.35467 102.34 4.544C102.692 3.72267 103.183 3.01333 103.812 2.416C104.441 1.81867 105.188 1.36 106.052 1.04C106.916 0.709333 107.86 0.544 108.884 0.544C110.047 0.544 111.049 0.757333 111.892 1.184C112.745 1.61067 113.401 2.20267 113.86 2.96C114.329 3.70667 114.564 4.57067 114.564 5.552C114.564 6.544 114.388 7.45067 114.036 8.272C113.695 9.08267 113.209 9.78667 112.58 10.384C111.951 10.9813 111.204 11.4453 110.34 11.776C109.476 12.096 108.532 12.256 107.508 12.256ZM107.828 9.2C108.297 9.2 108.708 9.10933 109.06 8.928C109.423 8.74667 109.732 8.496 109.988 8.176C110.244 7.856 110.436 7.49333 110.564 7.088C110.692 6.672 110.756 6.23467 110.756 5.776C110.756 5.33867 110.665 4.96 110.484 4.64C110.313 4.30933 110.063 4.05333 109.732 3.872C109.412 3.69067 109.023 3.6 108.564 3.6C108.105 3.6 107.695 3.69067 107.332 3.872C106.969 4.05333 106.66 4.304 106.404 4.624C106.148 4.944 105.956 5.312 105.828 5.728C105.7 6.13333 105.636 6.56533 105.636 7.024C105.636 7.45067 105.721 7.82933 105.892 8.16C106.073 8.49067 106.324 8.74667 106.644 8.928C106.975 9.10933 107.369 9.2 107.828 9.2ZM6.4 32.256C5.248 32.256 4.24 32.048 3.376 31.632C2.512 31.2053 1.84 30.6187 1.36 29.872C0.890667 29.1147 0.656 28.24 0.656 27.248C0.656 26.2667 0.826667 25.3653 1.168 24.544C1.52 23.7227 2.01067 23.0133 2.64 22.416C3.26933 21.8187 4.016 21.36 4.88 21.04C5.744 20.7093 6.69333 20.544 7.728 20.544C8.80533 20.544 9.76 20.736 10.592 21.12C11.424 21.504 12.0427 22.0587 12.448 22.784L9.728 24.912C9.49333 24.496 9.18933 24.176 8.816 23.952C8.44267 23.7173 8 23.6 7.488 23.6C7.04 23.6 6.62933 23.6853 6.256 23.856C5.89333 24.016 5.57867 24.2507 5.312 24.56C5.04533 24.8587 4.83733 25.216 4.688 25.632C4.53867 26.048 4.464 26.5067 4.464 27.008C4.464 27.4453 4.56 27.8293 4.752 28.16C4.944 28.4907 5.21067 28.7467 5.552 28.928C5.904 29.1093 6.30933 29.2 6.768 29.2C7.20533 29.2 7.632 29.0987 8.048 28.896C8.47467 28.6933 8.88 28.3627 9.264 27.904L11.488 30.032C10.8053 30.864 10.0427 31.4453 9.2 31.776C8.368 32.096 7.43467 32.256 6.4 32.256ZM18.0079 32.256C16.8452 32.256 15.8372 32.0427 14.9839 31.616C14.1412 31.1893 13.4852 30.6027 13.0159 29.856C12.5572 29.0987 12.3279 28.2293 12.3279 27.248C12.3279 26.256 12.4985 25.3547 12.8399 24.544C13.1919 23.7227 13.6825 23.0133 14.3119 22.416C14.9412 21.8187 15.6879 21.36 16.5519 21.04C17.4159 20.7093 18.3599 20.544 19.3839 20.544C20.5465 20.544 21.5492 20.7573 22.3919 21.184C23.2452 21.6107 23.9012 22.2027 24.3599 22.96C24.8292 23.7067 25.0639 24.5707 25.0639 25.552C25.0639 26.544 24.8879 27.4507 24.5359 28.272C24.1945 29.0827 23.7092 29.7867 23.0799 30.384C22.4505 30.9813 21.7039 31.4453 20.8399 31.776C19.9759 32.096 19.0319 32.256 18.0079 32.256ZM18.3279 29.2C18.7972 29.2 19.2079 29.1093 19.5599 28.928C19.9225 28.7467 20.2319 28.496 20.4879 28.176C20.7439 27.856 20.9359 27.4933 21.0639 27.088C21.1919 26.672 21.2559 26.2347 21.2559 25.776C21.2559 25.3387 21.1652 24.96 20.9839 24.64C20.8132 24.3093 20.5625 24.0533 20.2319 23.872C19.9119 23.6907 19.5225 23.6 19.0639 23.6C18.6052 23.6 18.1945 23.6907 17.8319 23.872C17.4692 24.0533 17.1599 24.304 16.9039 24.624C16.6479 24.944 16.4559 25.312 16.3279 25.728C16.1999 26.1333 16.1359 26.5653 16.1359 27.024C16.1359 27.4507 16.2212 27.8293 16.3919 28.16C16.5732 28.4907 16.8239 28.7467 17.1439 28.928C17.4745 29.1093 17.8692 29.2 18.3279 29.2ZM25.2664 32L27.5064 20.8H30.6104L34.8184 27.616H33.5064L34.8664 20.8H38.5464L36.3064 32H33.2024L28.9944 25.184H30.3064L28.9464 32H25.2664ZM42.5738 32.256C41.9124 32.256 41.2778 32.208 40.6698 32.112C40.0618 32.016 39.5071 31.8827 39.0058 31.712C38.5151 31.5307 38.0884 31.3333 37.7257 31.12L39.1818 28.336C39.5978 28.5707 40.0138 28.768 40.4298 28.928C40.8564 29.0773 41.2778 29.1893 41.6938 29.264C42.1204 29.3387 42.5418 29.376 42.9578 29.376C43.2884 29.376 43.5604 29.3493 43.7738 29.296C43.9978 29.2427 44.1631 29.168 44.2698 29.072C44.3871 28.9653 44.4458 28.848 44.4458 28.72C44.4458 28.5493 44.3498 28.4107 44.1578 28.304C43.9658 28.1973 43.7098 28.1013 43.3898 28.016C43.0804 27.9307 42.7338 27.8453 42.3498 27.76C41.9764 27.664 41.5978 27.5467 41.2138 27.408C40.8298 27.2587 40.4778 27.072 40.1578 26.848C39.8484 26.624 39.5978 26.3413 39.4058 26C39.2138 25.6587 39.1178 25.2427 39.1178 24.752C39.1178 23.8987 39.3418 23.1573 39.7898 22.528C40.2484 21.8987 40.8991 21.4133 41.7418 21.072C42.5951 20.72 43.6084 20.544 44.7818 20.544C45.6138 20.544 46.3871 20.6293 47.1018 20.8C47.8271 20.96 48.4511 21.1947 48.9738 21.504L47.6138 24.256C47.1658 23.9787 46.6751 23.7707 46.1418 23.632C45.6191 23.4933 45.0858 23.424 44.5418 23.424C44.1791 23.424 43.8751 23.4613 43.6298 23.536C43.3844 23.6 43.1978 23.6907 43.0698 23.808C42.9524 23.9253 42.8938 24.048 42.8938 24.176C42.8938 24.3467 42.9898 24.4907 43.1818 24.608C43.3738 24.7147 43.6298 24.8107 43.9498 24.896C44.2698 24.9707 44.6164 25.056 44.9898 25.152C45.3738 25.2373 45.7524 25.3493 46.1258 25.488C46.5098 25.616 46.8618 25.792 47.1818 26.016C47.5018 26.2293 47.7578 26.5067 47.9498 26.848C48.1418 27.1787 48.2378 27.5893 48.2378 28.08C48.2378 28.912 48.0084 29.6427 47.5498 30.272C47.0911 30.8907 46.4351 31.376 45.5818 31.728C44.7391 32.08 43.7364 32.256 42.5738 32.256ZM55.0094 32.256C53.8574 32.256 52.8494 32.048 51.9854 31.632C51.1214 31.2053 50.4494 30.6187 49.9694 29.872C49.5 29.1147 49.2654 28.24 49.2654 27.248C49.2654 26.2667 49.436 25.3653 49.7774 24.544C50.1294 23.7227 50.62 23.0133 51.2494 22.416C51.8787 21.8187 52.6254 21.36 53.4894 21.04C54.3534 20.7093 55.3027 20.544 56.3374 20.544C57.4147 20.544 58.3694 20.736 59.2014 21.12C60.0334 21.504 60.652 22.0587 61.0574 22.784L58.3374 24.912C58.1027 24.496 57.7987 24.176 57.4254 23.952C57.052 23.7173 56.6094 23.6 56.0974 23.6C55.6494 23.6 55.2387 23.6853 54.8654 23.856C54.5027 24.016 54.188 24.2507 53.9214 24.56C53.6547 24.8587 53.4467 25.216 53.2974 25.632C53.148 26.048 53.0734 26.5067 53.0734 27.008C53.0734 27.4453 53.1694 27.8293 53.3614 28.16C53.5534 28.4907 53.82 28.7467 54.1614 28.928C54.5134 29.1093 54.9187 29.2 55.3774 29.2C55.8147 29.2 56.2414 29.0987 56.6574 28.896C57.084 28.6933 57.4894 28.3627 57.8734 27.904L60.0974 30.032C59.4147 30.864 58.652 31.4453 57.8094 31.776C56.9774 32.096 56.044 32.256 55.0094 32.256ZM60.5476 32L62.7876 20.8H66.5636L64.3236 32H60.5476ZM71.0054 24.96H75.9974L75.4534 27.68H70.4614L71.0054 24.96ZM70.4134 29.152H76.0294L75.4534 32H66.1414L68.3814 20.8H77.4854L76.9094 23.648H71.5174L70.4134 29.152ZM76.907 32L79.147 20.8H82.251L86.459 27.616H85.147L86.507 20.8H90.187L87.947 32H84.843L80.635 25.184H81.947L80.587 32H76.907ZM92.1984 32L93.8464 23.728H90.5664L91.1584 20.8H101.494L100.902 23.728H97.6224L95.9744 32H92.1984ZM105.099 24.96H110.091L109.547 27.68H104.555L105.099 24.96ZM104.507 29.152H110.123L109.547 32H100.235L102.475 20.8H111.579L111.003 23.648H105.611L104.507 29.152Z" fill="white"/>
</svg>
